Coordinates
version=1
nRows=17
nColumns=36
inDegrees=yes

Units are S.I. units (second, meters, Newtons, ...)
If the header above contains a line with 'inDegrees', this indicates whether rotational values are in degrees (yes) or radians (no).

endheader
time	pelvis_tilt	pelvis_list	pelvis_rotation	pelvis_tx	pelvis_ty	pelvis_tz	hip_flexion_r	hip_adduction_r	hip_rotation_r	knee_angle_r	knee_angle_r_beta	ankle_angle_r	subtalar_angle_r	mtp_angle_r	hip_flexion_l	hip_adduction_l	hip_rotation_l	knee_angle_l	knee_angle_l_beta	ankle_angle_l	subtalar_angle_l	mtp_angle_l	lumbar_extension	lumbar_bending	lumbar_rotation	arm_flex_r	arm_add_r	arm_rot_r	elbow_flex_r	pro_sup_r	arm_flex_l	arm_add_l	arm_rot_l	elbow_flex_l	pro_sup_l
      1.07000000	     -4.13187677	     -0.87304966	      2.28297751	      1.05427370	      0.94893031	     -0.21297816	     25.63387564	      2.73386239	      1.28894540	      8.81045011	      0.15377136	     -1.70865483	    -13.69093867	     -7.35650128	     -9.15773025	      4.35020158	     -2.41222576	      0.84191083	      0.01469412	     11.98456094	      1.78759606	     -7.35650128	     -9.18125252	    -10.87125153	     -6.07216877	     -2.47129780	     -5.62645597	      3.37982099	     32.78018924	    111.22959252	     10.77351938	     -8.45830561	      9.89791765	     28.70157836	    106.58571035
      1.08000000	     -4.14717734	     -0.89721497	      2.56029924	      1.06623177	      0.94653847	     -0.21492293	     25.42693457	      2.80499115	      1.15565997	      5.98076750	      0.10438408	     -1.39001125	    -12.11528099	     -7.36615284	    -10.01981789	      4.34286362	     -2.80126931	      0.77801855	      0.01357899	     12.68826166	      2.86942465	     -7.36615284	     -8.97257468	    -10.25857525	     -5.99959853	     -2.71238822	     -5.54267097	      2.14382315	     32.84799245	    111.37584044	     10.56971587	     -8.41695056	     10.46431299	     29.33106412	    106.72350272
      1.09000000	     -4.16444923	     -0.88010836	      2.81272372	      1.07824992	      0.94404344	     -0.21681397	     25.27959918	      2.85940301	      0.96906489	      3.48150025	      0.06076364	     -1.16823063	    -10.91971914	     -7.36918682	    -10.88649893	      4.38316200	     -2.83920828	      0.72224059	      0.01260548	     13.06707153	      3.22926892	     -7.36918682	     -8.74769248	     -9.69380190	     -6.04907125	     -2.78595905	     -5.51925972	      1.53637828	     32.69907775	    111.28426877	     10.24730902	     -8.42149864	     10.87173538	     30.00621028	    106.78387019
      1.10000000	     -4.39418276	     -0.82157227	      3.01685557	      1.09026162	      0.94112786	     -0.21855938	     25.59294018	      2.90512331	      0.59717413	      1.68700750	      0.02944384	     -0.79025519	    -10.12066399	     -7.37054943	    -11.48521702	      4.45949688	     -2.77115417	      0.72339477	      0.01262562	     13.26479493	      3.53786514	     -7.37054943	     -8.26605349	     -9.21062497	     -5.98471235	     -2.94817927	     -5.51825042	      1.11162975	     32.56068484	    111.16282227	      9.96738393	     -8.37420340	     11.13974523	     30.51610640	    106.80354266
      1.11000000	     -4.35316577	     -0.72543704	      3.18674286	      1.10249567	      0.93856120	     -0.22026744	     25.97370039	      2.90680578	     -1.12176937	      0.93663711	      0.01634740	      1.22781402	     -6.93635966	     -7.37681608	    -12.36366272	      4.53485200	     -3.12242768	      0.76765964	      0.01339819	     13.79746985	      4.67362295	     -7.37681608	     -8.15865620	     -8.72228529	     -5.89601783	     -3.11828592	     -5.21427272	     -0.80240990	     32.70229778	    111.15470086	      9.62804716	     -8.50280212	     11.81132515	     31.38797241	    106.95212796
      1.12000000	     -4.49115914	     -0.49878115	      3.17249519	      1.11457200	      0.93575325	     -0.22168923	     26.58261815	      2.92273373	     -1.56874110	      0.53791895	      0.00938846	      1.51843845	     -6.92494795	     -7.37726370	    -13.02750278	      4.80804859	     -3.11858967	      0.84051964	      0.01466984	     13.83933508	      4.70811647	     -7.37726370	     -7.81111622	     -8.43282736	     -5.73128644	     -3.16751141	     -5.24482965	     -0.90035060	     32.64968867	    111.04798367	      9.42241200	     -8.44532711	     11.88894194	     31.51057954	    106.90315380
      1.13000000	     -4.53597741	     -0.49718115	      3.44606859	      1.12727965	      0.93319168	     -0.22348418	     27.09463023	      2.98055213	     -3.82150794	      0.53349005	      0.00931116	      4.03585958	     -3.43680698	     -7.38309778	    -13.78098092	      4.73082113	     -2.86700639	      0.97485583	      0.01701444	     14.07504985	      5.19451407	     -7.38309778	     -7.56816844	     -7.84792808	     -5.66180591	     -3.37204759	     -4.90694204	     -2.84317166	     32.52725708	    111.05709803	      9.02856264	     -8.58259828	     12.72153598	     32.36332128	    107.04212886
      1.14000000	     -4.58260967	     -0.41757052	      3.55644542	      1.14000444	      0.93068270	     -0.22499863	     27.43010168	      3.09977000	     -4.43539755	      0.50770248	      0.00886108	      4.80873150	     -3.35947457	     -7.38481160	    -14.48704529	      4.76394789	     -2.64018187	      1.19352785	      0.02083099	     14.04761591	      5.34271544	     -7.38481160	     -7.31965489	     -7.36791410	     -5.58680835	     -3.43528310	     -4.82477702	     -3.33952932	     32.38896132	    111.00920442	      8.71104490	     -8.59675362	     12.97902665	     32.57333749	    107.04509126
      1.15000000	     -4.46549198	     -0.36286794	      3.71039297	      1.15309247	      0.92855405	     -0.22656369	     27.42790713	      3.22975632	     -4.95607764	      0.54656563	      0.00953937	      5.66015900	     -2.96461467	     -7.38785301	    -15.32079580	      4.73362891	     -2.49170010	      1.51796478	      0.02649348	     13.97437966	      5.51085584	     -7.38785301	     -7.23865612	     -6.84642866	     -5.57407587	     -3.47183434	     -4.61130962	     -4.45844230	     32.24436084	    110.96774138	      8.35654364	     -8.66932441	     13.39869793	     32.89733508	    107.08130954
      1.16000000	     -4.42211908	     -0.38284266	      3.85370177	      1.16647106	      0.92643272	     -0.22813132	     27.37215111	      3.43950117	     -5.04954808	      0.66427656	      0.01159381	      6.07052469	     -3.27695704	     -7.38905734	    -15.98177037	      4.61449339	     -2.38860685	      2.03184929	      0.03546246	     13.78184451	      5.60340479	     -7.38905734	     -7.03539182	     -6.23447215	     -5.49752373	     -3.60313857	     -4.58582933	     -4.87639164	     32.16360066	    110.90898364	      8.01900106	     -8.59156343	     13.54919280	     32.89716740	    107.05335038
      1.17000000	     -4.37980905	     -0.27353262	      3.93233795	      1.18022680	      0.92441938	     -0.22965208	     27.21791843	      3.52655394	     -4.94169507	      0.90613719	      0.01581508	      6.09262113	     -3.37164255	     -7.38920684	    -16.67671170	      4.65834632	     -2.21980570	      2.50963374	      0.04380137	     13.62786605	      5.66710157	     -7.38920684	     -6.74632040	     -5.80786292	     -5.40571248	     -3.79859270	     -4.59119623	     -4.96500223	     32.06898861	    110.90025294	      7.58303798	     -8.51927962	     13.60788899	     32.81435971	    107.05479053
      1.18000000	     -4.10918382	     -0.54093416	      4.17414983	      1.19403880	      0.92290701	     -0.23128605	     26.76257443	      3.97903236	     -4.74506801	      1.30614983	      0.02279661	      5.89129191	     -5.05549483	     -7.39132180	    -17.24579883	      4.17941061	     -2.59230344	      3.62646382	      0.06329373	     13.22797730	      5.86169130	     -7.39132180	     -6.83391068	     -4.82575204	     -5.48564117	     -3.74174119	     -4.42648128	     -6.22594633	     31.85983868	    110.84122420	      7.24444244	     -8.46646961	     13.92591757	     32.73351726	    107.08976722
      1.19000000	     -4.11375132	     -0.65994165	      4.22906675	      1.20802716	      0.92109280	     -0.23263661	     26.53535483	      4.35243801	     -3.69977879	      1.73132110	      0.03021725	      4.14387324	     -7.61735904	     -7.39597678	    -17.46785561	      3.89731321	     -3.08513481	      4.87083129	      0.08501204	     13.10695375	      6.65824495	     -7.39597678	     -6.49235149	     -4.07697028	     -5.10213113	     -4.11162576	     -4.23398292	     -7.82535127	     32.02579285	    110.93245911	      7.05234960	     -8.26836260	     14.37363034	     32.24687781	    107.09214073
      1.20000000	     -3.95434714	     -0.85868424	      4.29977881	      1.22229656	      0.91974149	     -0.23416698	     26.25273422	      4.72754525	     -3.60021874	      2.56941657	      0.04484478	      3.34758012	     -8.25473145	     -7.39713481	    -17.81256541	      3.53814407	     -3.38204328	      6.18616094	      0.10796888	     12.43065558	      6.61220421	     -7.39713481	     -6.33992038	     -3.18875608	     -5.03957490	     -4.20936005	     -4.32950376	     -8.05649427	     31.94757698	    110.96586225	      6.62831993	     -8.10274558	     14.50836550	     31.90102026	    107.07443585
      1.21000000	     -4.02574774	     -1.11214770	      4.29147349	      1.23667802	      0.91828420	     -0.23550556	     26.21472455	      5.17601594	     -2.96297846	      3.47139528	      0.06058728	      1.23985852	    -10.03954372	     -7.39976969	    -17.69101733	      3.10543306	     -4.00643493	      7.87710941	      0.13748149	     11.86164396	      6.95888469	     -7.39976969	     -5.86422780	     -2.25492265	     -4.78319047	     -4.41558055	     -4.39731268	     -8.54692178	     31.77776430	    111.02296498	      6.26767837	     -7.81879760	     14.68668993	     31.15178784	    107.02040842
      1.22000000	     -3.95530085	     -1.44074018	      4.21427985	      1.25116897	      0.91723792	     -0.23658876	     25.89968276	      5.76718923	     -1.62775065	      4.19203213	      0.07316476	     -1.88612576	    -13.28469479	     -7.40697320	    -17.54597681	      2.51282393	     -4.99147890	      9.86336843	      0.17214825	     11.28895004	      7.74259525	     -7.40697320	     -5.53716172	     -1.25106430	     -4.37890626	     -4.66441994	     -4.46791180	     -9.18328725	     31.75623795	    111.19420065	      6.03254181	     -7.53942233	     15.18797039	     30.33379331	    106.95988645
      1.23000000	     -3.95094816	     -1.81104270	      4.08703684	      1.26570985	      0.91646304	     -0.23769307	     25.85949457	      6.32444991	     -0.94145277	      5.39844180	      0.09422058	     -4.04314199	    -15.02012052	     -7.41373285	    -17.16295413	      1.88672657	     -5.73502035	     12.10561175	      0.21128278	     10.25392242	      7.85951688	     -7.41373285	     -5.14827135	     -0.17655132	     -4.03713545	     -4.81269526	     -4.63446699	     -9.41675142	     31.57392488	    111.28149637	      5.71179911	     -7.17689457	     15.27509633	     29.42556973	    106.83773381
